<svg viewBox="0 0 576 291" xmlns="http://www.w3.org/2000/svg" fill-rule="evenodd" clip-rule="evenodd" stroke-linejoin="round" stroke-miterlimit="2"><g fill-rule="nonzero"><path d="M101.879 130.599c-1.07.534-1.07.267-1.6 1.067l-8.27 21.069c-1.07 4.001-4 9.068-5.6 12.802l-7.2 16.535c-1.87 3.467-5.87 9.868-10.4 14.935-3.2 3.468-6.4 6.135-9.07 6.935-5.33-7.201-2.67-22.403-.8-29.604 3.2-11.201 5.07-22.67 7.74-34.138 1.33-4.267 1.6-7.734 3.2-12.001.53-1.067 1.06-3.201 1.6-5.067.26-1.601 1.33-4.268 1.33-5.601 0-1.067-.27-2.4-1.33-2.934-.8-.8-1.07-1.867-1.87-2.667-1.87-1.6-2.67-2.133-4.27-2.667-1.6-.8-3.2-.533-4.53-.267-1.07.267-1.87.534-2.94 1.867-.53.8-1.6 4.001-1.86 4.801l-.27 1.067c-5.6-1.6-3.47-.8-9.87-1.6-6.13 0-14.4.533-20.27 2.667-2.13 1.066-2.93 1.866-4.53 2.933-6.401 3.734-8.535 7.468-13.068 14.402C3.733 141.801 0 158.336 0 164.47c0 4.801.8 8.534 2.667 12.002 2.933 5.334 1.866 5.334 6.934 7.467 4.267 1.867 9.868 2.134 14.398-1.6l18.41-22.136c1.6-2.134-.27-.8 1.6-1.867l-3.2 16.535c-1.07 9.602-2.4 21.603 2.4 30.137 1.86 3.468 8.53 8.535 12.53 8.535 6.67 0 11.74-2.934 16.54-7.734 1.6-1.601 4-4.001 5.06-5.868l7.2-10.935 7.47-17.068c1.34-2.134 1.07-2.934 2.4-5.601 1.07-2.667 5.87-12.268 6.14-14.935.26-1.334 3.46-10.668 5.06-14.135.27-.8.54-1.601.8-1.867-.26-4.001-1.06-4.534-4.53-4.801zm-57.07 9.601c-1.6 3.734-8.01 10.668-10.67 15.736-.8 2.133-1.07 1.333-2.13 2.933l-2.14 3.201c-1.33 1.867-1.07 1.333-2.67 2.667-1.86 1.867-5.06 8.001-10.66 9.868-.804-2.667 0-.8-.271-2.401-.533-9.601 3.471-18.935 7.731-28.003 3.47-7.201 7.74-20.003 17.07-21.336 5.87-.267 7.2.267 11.47 4.267-.8 3.467-5.33 8.001-7.73 13.068z"/><path d="M204.829 134.066c0-1.067 0 0-.54-1.333-1.06-2.934-1.86-2.401-3.2-2.134-1.33 0-1.06-.267-1.87 1.067l-2.13 4.267c-.8 1.6-2.67 7.201-3.46 9.335-.8 1.6-1.34 2.933-2.41 5.067l-5.33 12.802c-1.33 3.733-1.87 4.267-3.2 7.467l-5.33 14.935-12.81 28.804c-.53 1.6-2.93 4-3.73 5.867-1.33 1.867-2.13 3.201-3.47 4.268-.26-1.601-.26-3.201-.26-5.068-.54-8.534 1.33-19.202 2.66-25.603 2.94-13.335 8.81-42.939 11.2-56.274 1.07-5.067 1.34-11.201 2.14-16.002 1.87-10.668-.53-11.468-3.73-20.536-.8-2.133-1.87-2.667-2.67-3.733-3.2-4.534-13.87-9.335-19.2-6.401-.8.267-1.87.8-2.94 1.6l-4 2.667-1.07.533-1.6 2.934c-1.6 1.067-2.13 3.467-3.2 4.801-3.73 5.867-15.47 42.138-18.66 50.139-2.94 7.735-4 14.135-7.47 22.136-.27-3.467-.27-6.934.26-10.401 1.07-6.934 1.87-14.402 2.67-21.069.27-2.134 1.34-5.067 1.6-7.734.27-2.934 1.33-12.802.54-15.202 0-.8-.54-1.334-1.07-1.867-.27-.534-.53-1.067-1.07-1.6-2.4-1.601-4.27-.801-5.87-2.134-.53-.533-3.73-.533-5.86 0-.8.267-1.6.267-2.4.8-.54.533-1.07 1.067-1.07 1.867-.27.267-.27.8-.27 1.333v2.401c0 2.933-.26 4.267-.8 6.667-.26 2.134-.53 4.534-.8 6.401-1.33 10.935-2.67 22.136-4 32.804-1.06 6.934-2.4 21.603-1.06 28.537.8 4.534 3.46 9.335 7.46 11.735 1.87 1.067 3.74 1.067 6.4 1.6 3.47.267 4.8 0 6.4-1.6 1.34-2.934.8-3.467 1.87-5.868 2.93-6.134 4.8-14.135 7.47-23.469 3.2-11.735 13.33-38.405 17.33-48.006.54-1.6.54-1.867.8-3.467.54-1.6.8-1.334 1.34-2.934.8-1.067.53-1.6.8-2.934l2.13-6.4c1.07-4.001 6.14-13.869 8-15.469 1.34-1.067 2.4-1.6 3.2-1.334 1.34.534 2.14 2.401 2.94 5.068.53 1.867.8 4.267.8 6.401-.27 8.801-2.94 18.935-4 27.203-1.87 12.268-9.07 39.472-9.87 52.273-2.4 11.202-3.74 22.67-1.33 32.271.8 2.667.26 5.067 1.86 7.467 1.6 3.201 4.8 7.201 12.27 8.268 6.13.8 6.4-1.333 9.87-4.267 2.13-1.867 2.93-6.134 5.6-10.401 2.67-4.268 3.73-7.201 6.4-11.735 2.4-4.534 7.47-21.87 10.13-28.27 2.4-5.068 5.07-12.002 7.47-17.336 2.4-5.867 5.6-13.602 7.47-18.669.8-2.4 1.6-8.534 2.93-10.668l-.26-1.867z"/><path d="M300.039 133.266c-.53-1.067-1.34-2.133-2.4-2.667-.8-.267-2.67 0-3.2.534-.27.266-.54.8-.8 1.333-2.4 4.001-7.47 12.268-8.54 13.335-4.53 6.401-7.73 12.802-13.33 18.669l-8.8 8.001-7.2 5.334 1.86-12.802 1.07-10.134c0-1.334.27-2.667.53-4.001.27-1.867.54-5.867 1.07-10.134.53-6.134 1.6-12.802 2.13-16.002.27-3.201.8-7.468.8-11.202-.26-4.534.8-2.4-1.6-6.934-.53-.8-1.06-1.6-2.13-2.4-.8-.534-1.6-1.6-2.4-2.134-1.6-.533-3.2-.266-4.53-.533-.54-.267-1.34-.267-2.14-.267-1.06.267-1.6.267-1.86.8-.27.267-.54.8-.8 1.6v2.134c-1.34-1.067-2.94-2.667-6.67-4-2.4-1.067-4.27-1.601-6.14-1.601-3.2-.533-5.33-.533-7.2-.533-4-.267-6.93 1.067-9.87 2.667-.8.533-1.33 1.333-2.4 1.867-2.66 1.6-5.06 3.2-7.46 6.134-8.54 10.401-14.67 26.403-16.27 40.805-.27 3.467 0 11.735 1.6 16.002 3.47 8.534 6.13 14.135 11.2 18.136 4.27 3.2 6.93 4.534 9.87 4.534 5.06.266 8.53-2.934 12-5.601 2.13-1.6 3.73-3.201 5.07-5.067 1.6-1.601 2.93-3.201 4.26-4.801 1.07-1.334 2.14-2.667 3.2-4.001v-.266c-.26 1.867-.53 3.467-.8 5.067-.26 1.6-.53 3.467-.8 4.801-.8 4.8-2.4 9.868-2.66 14.135-2.94 1.6-14.67 14.135-16.27 15.468-1.34 1.334-4.27 5.068-5.6 6.134-2.4 2.134-4.27 5.068-6.14 7.201-6.93 8.268-8.8 10.668-14.4 20.803 0 0-2.13 3.734-3.73 7.734-1.34 3.734-2.14 11.202-2.14 11.468-.8 5.601-2.4 13.069 1.07 19.469 1.33 2.134 2.93 3.468 5.6 5.334 1.6 1.067 3.74 2.934 6.4 2.934 5.07 0 9.6-1.867 13.6-4.8 5.07-3.468 9.87-6.935 13.61-12.002 2.4-3.734 5.06-8.534 7.2-12.001 2.66-5.068 5.33-12.269 8-19.203 2.13-4.8 3.73-9.601 4.26-13.602l4.54-21.069c.53-2.667.53-4.534 1.07-6.934l2.66-9.868c1.6-3.2 9.34-7.468 12.27-10.401 2.4-2.667 6.94-6.934 8.53-9.068 1.34-1.867 4-4.534 5.61-6.401l8.8-13.602c1.33-2.133 1.86-1.866 2.66-4.267.27-1.067 3.47-4.534 5.87-9.068.53-.8.8-1.333 1.07-1.866.27-.534 1.07-2.401.8-3.201zm-72.54 95.212c-.8 3.2-2.14 7.201-3.47 11.201-1.87 5.601-2.93 11.202-4.54 14.669-1.06 2.134-3.73 8.001-6.93 13.068-4.27 6.668-10.13 12.268-13.6 12.802-2.93-1.334-4.27-3.467-4-9.335.26-1.066.53-2.667.53-4.267-.27-3.467 1.6-7.467 2.4-10.401 2.4-6.934 4.27-13.335 8.54-19.203l8-9.334 16.8-17.869c-.8 2.4-3.2 16.002-3.73 18.669zm10.93-73.609c-.8 1.333-2.93 3.734-5.33 6.667-2.14 2.934-4.54 5.868-6.94 8.001-1.06 1.067-1.86 2.401-2.93 3.201-1.33 1.333-2.67 1.867-3.2 2.4-1.34.533-4 1.6-5.6 1.867-1.07 0-2.4-.533-3.2-.267-1.34-1.6-1.87-4.267-2.14-6.401-.26-1.866 0-4.267-.53-5.867-.53-2.4.53-7.734 2.4-14.135 1.87-5.601 4.27-12.268 6.67-17.869 2.93-6.667 5.86-12.535 8-14.402 1.07-1.067 2.4-3.2 4.27-5.067 2.93-2.667 5.86-5.067 9.06-4.801 1.07 0 1.07.534 2.14.8.8.267 1.86 1.067 2.93 2.134 1.07 1.334 1.34 2.667 1.6 3.2.53.801.8 1.334.53 2.934 0 .267.27.534.27.534l-.8 4.8c-.26 1.867-.8 5.601-1.33 9.068-.54 3.734-1.34 7.468-1.6 8.534-.54 2.667-.54 4.534-.8 7.468 0 .8-.27 1.6-.27 2.4l-3.2 4.801z"/><path d="M357.909 129.799c-1.86.267-1.33 0-2.4 1.6l-.8 1.6c-5.6 10.402-9.6 17.869-16.53 27.204-1.87 2.667-3.47 5.334-5.6 8.001-1.87 2.4-4.27 5.601-6.67 9.068-2.4 2.933-6.14 5.334-8.8 7.734-2.14 1.867-4.54 2.667-6.94 2.667-1.6 0-3.2.533-4.53.267-1.6-.8-5.6-2.134-6.67-4.801-1.07-3.734-2.67-8.534-1.6-14.402.27-2.133.27-4.267.8-6.401.53-2.933 1.34-5.867 2.14-8.267.8-2.934 1.6-5.334 1.6-6.401 1.06.267 2.4.8 4 1.333.8 0 1.6.267 2.4.267 2.13.267 5.6-.533 6.66-.267 2.14.267 4.27-1.333 6.14-2.667 2.13-1.333 4.27-2.4 5.6-4.8a46 46 0 003.2-6.134c1.33-4.267 1.87-4.267 1.33-9.335-.27-2.667-.53-4.267-1.6-6.134-1.06-1.6-2.13-3.467-4-4.534-7.47-3.734-13.87-3.467-21.87.534-1.07.533-2.13 1.333-3.2 2.4-1.33 1.333-2.93 2.667-4.27 4.267-1.86 1.6-10.13 14.935-12 22.136-.8 2.934-1.33 6.934-1.86 10.135-.54 2.4-1.34 6.134-1.6 8.534-.27 2.667-.27 5.334-.27 7.735-.27 3.467.53 5.867 1.07 8.801.8 4.267 2.4 8.001 4.8 11.201 2.4 2.934 4.8 5.067 7.2 6.134 1.86.8 4 1.334 6.13 1.334 2.14.266 4.27.266 6.94 0 7.2-2.134 11.2-3.734 14.13-6.401 2.4-2.4 5.87-3.467 10.13-8.801 2.94-4.534 6.14-9.335 9.07-13.869 1.34-2.4 3.47-4.534 4.54-6.934 3.2-5.867 7.73-12.001 11.2-19.469l3.2-6.401.53-1.333c1.87-2.934.54-5.334-1.6-5.601zm-51.47 2.934c.53-1.334.53-1.334 1.07-2.934 1.06-2.4 3.46-4.534 4.8-5.601 1.33-1.333 3.73-1.6 4.8-1.6 1.6 0 2.66 1.067 3.46 2.4.27.534.27 1.334.27 1.867 0 .8.53 1.601.27 2.401 0 1.333-.27 2.933-1.07 4.534-.8 2.4-2.13 4.8-4.27 6.134-1.6.8-3.73 1.6-5.33 1.6-.8.267-2.4-.267-3.73-.534-1.07-.266-2.14-.8-2.67-1.066 1.07-2.667 1.6-5.601 2.4-7.201z"/><path d="M423.519 132.999c0-.533 0-1.066-.53-2.133-.54-1.067-1.34-1.867-1.6-2.134-.27-.266-.54-.533-.8-.533h-.27s-1.07 0-1.33.267c-.27 0-1.07.8-1.6.533-.27 0-.27.533-.8.533-1.6 5.334-4.27 14.402-6.94 22.136-4.26 13.069-9.33 26.937-14.13 39.739-.8 2.667-1.6 5.067-2.67 7.467-5.07 8.268-4.8 12.535-10.94 19.203-1.06 1.067-4 2.4-5.6 3.467-2.13 1.333-4.53.533-6.93.267-3.73-2.401-5.33-9.868-6.4-15.202-2.13-11.468-4-29.604-2.13-39.739.8-4-.8-8.801.8-15.202l2.13-19.469c.27-2.933-.53-4.267.53-4.8.27-.267 2.14-1.867 2.94-1.867 1.33-.267 1.6-1.6 2.66-2.667 6.67-5.868 9.87-11.202 15.21-18.136 3.73-5.067 13.06-23.203 16.26-29.87 4.8-9.868 8.27-17.336 10.41-27.47.8-5.068 3.73-13.069 3.2-19.203 0-1.6-.27-1.066-.54-2.4-.26-2.667-.8-5.867-2.13-9.868-1.87-6.934-7.2-12.268-10.94-13.868-2.4-1.067-4.26-1.6-5.33-1.6-2.67 0-1.33-.801-4.53-.267-4.8 1.067-2.94.533-6.94 3.467-4 2.667-5.06 7.734-7.73 11.735-4.8 7.201-2.14 3.734-5.34 10.401-3.2 6.934-5.86 14.669-8.53 22.136l-3.74 11.202c-4 12.268-5.59 25.336-8.8 37.871-2.66 10.401-3.2 22.136-5.06 33.337l-2.4 21.603c0 19.736-1.87 40.805 5.33 60.274 2.13 5.601 5.6 11.202 9.87 14.669 3.73 2.934 13.6 5.867 18.13 5.867 4.01.267 7.74-2.4 10.94-5.067 2.4-2.134 2.67-4.801 4.53-6.668 1.87-1.6 4.27-5.6 6.4-10.134 5.87-12.002 10.41-28.004 12.27-33.338l.53-1.066 3.74-13.602c1.33-3.201 6.67-22.136 8.8-28.27v-1.601zm-56.81-27.47c.27-2.133.8-4 1.34-5.867 3.46-14.135 5.33-28.537 9.06-42.939 2.94-12.268 9.34-27.737 14.94-38.405.53-1.066 1.07-1.6 1.33-2.667 0 0 1.34-3.733 2.67-4 1.07-.267 1.87-.533 2.4-.267 2.13.8 4.27 2.667 4.8 5.334.27 2.134 1.07 5.868 1.33 8.268.81 6.401-.53 8.801-1.6 14.402l-.8 5.067v.533c-2.4 9.602-3.46 15.202-8 22.67l-3.46 6.934c-.54 1.067-.54.8-.8 1.6-.8 1.601.26.8-1.34 3.201l-7.46 12.535c-1.6 2.933-6.41 9.601-10.41 14.935-2.4 3.467-5.06 4.8-5.6 5.867.27-2.933.8-3.734 1.6-7.201z"/><path d="M506.729 130.599c-1.07.534-1.07.267-1.6 1.067l-8.27 21.069c-1.06 4.001-4 9.068-5.6 12.802l-7.2 16.535c-1.87 3.467-5.87 9.868-10.4 14.935-3.2 3.468-6.4 6.135-9.07 6.935-5.33-7.201-2.67-22.403-.8-29.604 3.2-11.201 5.07-22.67 7.74-34.138 1.33-4.267 1.6-7.734 3.2-12.001.53-1.067 1.06-3.201 1.6-5.067.26-1.601 1.33-4.268 1.33-5.601 0-1.067-.27-2.4-1.33-2.934-.8-.8-1.07-1.867-1.87-2.667-1.87-1.6-2.67-2.133-4.27-2.667-1.6-.8-3.2-.533-4.53-.267-1.07.267-1.87.534-2.94 1.867-.53.8-1.59 4.001-1.86 4.801l-.27 1.067c-5.6-1.6-3.47-.8-9.87-1.6-6.13 0-14.4.533-20.27 2.667-2.13 1.066-2.93 1.866-4.53 2.933-6.4 3.734-8.53 7.468-13.07 14.402-4.26 6.668-8 23.203-8 29.337 0 4.801.8 8.534 2.67 12.002 2.93 5.334 1.87 5.334 6.93 7.467 4.27 1.867 9.87 2.134 14.4-1.6l18.41-22.136c1.6-2.134-.27-.8 1.6-1.867l-3.2 16.535c-1.07 9.602-2.4 21.603 2.4 30.137 1.86 3.468 8.53 8.535 12.53 8.535 6.67 0 11.74-2.934 16.54-7.734 1.6-1.601 4-4.001 5.06-5.868l7.21-10.935 7.46-17.068c1.34-2.134 1.07-2.934 2.4-5.601 1.07-2.667 5.87-12.268 6.14-14.935.26-1.334 3.46-10.668 5.06-14.135.27-.8.54-1.601.8-1.867-.26-4.001-1.06-4.534-4.53-4.801zm-57.07 9.601c-1.6 3.734-8 10.668-10.67 15.736-.8 2.133-1.07 1.333-2.13 2.933l-2.14 3.201c-1.33 1.867-1.07 1.333-2.66 2.667-1.87 1.867-5.07 8.001-10.67 9.868-.8-2.667 0-.8-.27-2.401-.53-9.601 3.47-18.935 7.73-28.003 3.47-7.201 7.74-20.003 17.07-21.336 5.87-.267 7.2.267 11.47 4.267-.8 3.467-5.33 8.001-7.73 13.068z"/></g></svg>