<svg width="100%" height="100%" viewBox="0 0 2068 637" version="1.1" xmlns="http://www.w3.org/2000/svg" xmlns:xlink="http://www.w3.org/1999/xlink" xml:space="preserve" xmlns:serif="http://www.serif.com/" style="fill-rule:evenodd;clip-rule:evenodd;stroke-linejoin:round;stroke-miterlimit:2;">
    <g transform="matrix(1.44848,0,0,1.44848,-579.258,-521.71)">
        <g transform="matrix(1,0,0,1,-291.948,155.623)">
            <g transform="matrix(400,0,0,400,796.626,499.011)">
                <path d="M0.224,0.187C0.598,0.257 0.699,-0.64 0.328,-0.732C0.034,-0.805 -0.183,0.111 0.224,0.187ZM0.263,0.151C0.023,0.201 0.145,-0.709 0.324,-0.693C0.475,-0.715 0.526,0.014 0.263,0.151Z" style="fill-rule:nonzero;"/>
            </g>
            <g transform="matrix(400,0,0,400,1057.03,499.011)">
                <path d="M0.272,-0.323C0.272,-0.298 0.309,-0.281 0.318,-0.328C0.331,-0.394 0.34,-0.563 0.191,-0.537C-0.002,-0.503 -0.111,0.076 0.073,0.242C0.277,0.396 0.456,-0.054 0.543,-0.301C0.556,-0.338 0.527,-0.343 0.517,-0.317C0.426,-0.078 0.255,0.264 0.171,0.227C0.044,0.171 0.133,-0.292 0.237,-0.457C0.253,-0.483 0.309,-0.458 0.272,-0.323Z" style="fill-rule:nonzero;"/>
            </g>
            <g transform="matrix(400,0,0,400,1258.63,499.011)">
                <path d="M0.108,-0.217C0.244,-0.255 0.323,-0.521 0.183,-0.523C-0.08,-0.526 -0.11,0.132 0.159,0.143C0.253,0.147 0.396,-0.018 0.505,-0.314C0.519,-0.352 0.48,-0.336 0.475,-0.323C0.368,-0.05 0.243,0.115 0.167,0.105C0.096,0.096 0.108,-0.067 0.108,-0.217ZM0.109,-0.251C0.113,-0.346 0.194,-0.516 0.219,-0.473C0.233,-0.448 0.193,-0.28 0.109,-0.251Z" style="fill-rule:nonzero;"/>
            </g>
            <g transform="matrix(400,0,0,400,1443.03,499.011)">
                <path d="M0.3,-0.332C0.23,-0.156 0.183,0.273 0.31,0.323C0.434,0.372 0.605,-0.168 0.687,-0.304C0.696,-0.332 0.668,-0.35 0.648,-0.316C0.562,-0.177 0.442,0.212 0.344,0.271C0.252,0.326 0.418,-0.312 0.437,-0.4C0.437,-0.462 0.355,-0.528 0.316,-0.446C-0.024,-0.581 -0.155,-0.043 0.061,0.061C0.109,0.084 0.235,-0.181 0.3,-0.332ZM0.291,-0.407C0.249,-0.304 0.035,0.174 0.06,-0.051C0.071,-0.153 0.178,-0.472 0.291,-0.407Z" style="fill-rule:nonzero;"/>
            </g>
            <g transform="matrix(400,0,0,400,1695.83,499.011)">
                <path d="M0.419,-0.527C0.286,-0.575 0.139,-0.131 0.097,-0.05C0.094,-0.068 0.16,-0.494 0.161,-0.503C0.166,-0.594 0.046,-0.593 0.025,-0.531C0.01,-0.46 -0.023,-0.172 -0.021,0.017C-0.02,0.054 0.053,0.133 0.093,0.066C0.257,-0.366 0.352,-0.481 0.372,-0.491C0.417,-0.514 0.422,-0.443 0.416,-0.412C0.368,-0.18 0.211,0.362 0.424,0.362C0.535,0.362 0.725,-0.046 0.803,-0.314C0.81,-0.34 0.774,-0.333 0.769,-0.314C0.674,0.008 0.503,0.291 0.437,0.318C0.335,0.312 0.631,-0.451 0.419,-0.527Z" style="fill-rule:nonzero;"/>
            </g>
        </g>
        <g transform="matrix(1,0,0,1,0,32.577)">
            <g transform="matrix(1,0,0,1,0,7.22919)">
                <rect x="399.908" y="457.129" width="232.092" height="165.741" style="fill:white;"/>
            </g>
            <g transform="matrix(1,0,0,1,192.333,-247.984)">
                <g transform="matrix(100,0,0,100,248.81,833.058)">
                    <path d="M0.065,-0.734C0.053,-0.661 -0.136,0.287 0.08,0.382C0.223,0.445 0.339,0.135 0.472,-0.31C0.484,-0.349 0.456,-0.385 0.44,-0.331C0.334,0.019 0.194,0.403 0.114,0.339C0.073,0.306 0.122,-0.427 0.187,-0.753C0.202,-0.755 0.337,-0.76 0.359,-0.769C0.386,-0.78 0.374,-0.799 0.369,-0.805C0.313,-0.802 0.264,-0.797 0.194,-0.795C0.205,-0.859 0.214,-0.897 0.232,-0.995C0.248,-1.079 0.155,-1.057 0.136,-1.024C0.117,-1.004 0.098,-0.875 0.073,-0.774L-0.051,-0.767C-0.068,-0.751 -0.07,-0.737 -0.053,-0.727L0.065,-0.734Z" style="fill-rule:nonzero;"/>
                </g>
                <g transform="matrix(100,0,0,100,290.51,833.058)">
                    <path d="M-0.052,0.13C-0.045,0.204 0.068,0.167 0.074,0.125L0.101,-0.061C0.12,-0.114 0.291,-0.434 0.326,-0.377C0.359,-0.324 0.194,0.135 0.294,0.27C0.435,0.46 0.583,-0.024 0.671,-0.305C0.691,-0.369 0.649,-0.362 0.637,-0.321C0.533,0.037 0.402,0.35 0.347,0.268C0.31,0.213 0.562,-0.424 0.32,-0.424C0.252,-0.424 0.138,-0.223 0.108,-0.164L0.157,-0.503C0.374,-0.717 0.512,-1.143 0.344,-1.147C0.283,-1.148 0.212,-1.099 0.144,-0.948C0.011,-0.652 -0.013,-0.187 -0.052,0.13ZM0.16,-0.561C0.176,-0.879 0.293,-1.104 0.347,-1.103C0.418,-1.096 0.373,-0.808 0.16,-0.561Z" style="fill-rule:nonzero;"/>
                </g>
                <g transform="matrix(100,0,0,100,354.11,833.058)">
                    <path d="M0.108,-0.217C0.244,-0.255 0.323,-0.521 0.183,-0.523C-0.08,-0.526 -0.11,0.132 0.159,0.143C0.253,0.147 0.396,-0.018 0.505,-0.314C0.519,-0.352 0.48,-0.336 0.475,-0.323C0.368,-0.05 0.243,0.115 0.167,0.105C0.096,0.096 0.108,-0.067 0.108,-0.217ZM0.109,-0.251C0.113,-0.346 0.194,-0.516 0.219,-0.473C0.233,-0.448 0.193,-0.28 0.109,-0.251Z" style="fill-rule:nonzero;"/>
                </g>
            </g>
        </g>
    </g>
</svg>